<svg width="25" height="15" viewBox="0 0 25 15" fill="none" xmlns="http://www.w3.org/2000/svg">
<g clip-path="url(#clip0_280_5333)">
<path d="M21.3143 5.68849C21.7416 6.33375 21.9855 7.09161 22.0178 7.87488C22.7486 8.14445 23.3646 8.67441 23.757 9.37121C24.1493 10.068 24.2929 10.8869 24.1622 11.6832C24.0316 12.4796 23.6352 13.2022 23.043 13.7237C22.4508 14.2451 21.7009 14.5317 20.9257 14.533H4.48897C3.33353 14.5346 2.22454 14.0592 1.40472 13.2107L8.37826 7.45847C8.63394 7.60082 8.92615 7.68152 9.23735 7.68152C9.5066 7.68193 9.77257 7.62005 10.0161 7.50034L13.3399 10.531C13.2517 10.8213 13.2316 11.1294 13.2813 11.4295C13.331 11.7296 13.4491 12.0128 13.6256 12.2555C13.8021 12.4982 14.032 12.6931 14.2958 12.8241C14.5596 12.955 14.8498 13.018 15.1418 13.0079C15.4339 12.9977 15.7193 12.9147 15.9742 12.7658C16.2291 12.6168 16.4459 12.4063 16.6066 12.152C16.7672 11.8976 16.8669 11.6068 16.8973 11.3039C16.9278 11.001 16.888 10.695 16.7814 10.4115L21.3143 5.68849ZM20.2813 4.61205L15.7492 9.33502C15.5365 9.24813 15.31 9.20371 15.0815 9.20408C14.8123 9.20367 14.5463 9.26555 14.3028 9.38526L10.9789 6.35461C11.0644 6.0732 11.0859 5.77492 11.0417 5.48335C10.9976 5.19178 10.8889 4.91492 10.7244 4.67465C10.5598 4.43437 10.3439 4.23728 10.0937 4.09894C9.84349 3.96059 9.56583 3.8848 9.28266 3.87755C8.99949 3.8703 8.71859 3.93178 8.46215 4.05715C8.20571 4.18251 7.98077 4.36832 7.8051 4.59988C7.62944 4.83144 7.50787 5.1024 7.45 5.39136C7.39214 5.68031 7.39956 5.97933 7.47168 6.26478L0.550011 11.9736C0.221097 11.2735 0.0695811 10.4974 0.109883 9.71899C0.150185 8.94062 0.380965 8.18596 0.780257 7.52681C1.17955 6.86767 1.73407 6.32598 2.39104 5.9533C3.04801 5.58062 3.78558 5.38934 4.53353 5.39769C4.70092 4.00645 5.32377 2.718 6.29696 1.74979C7.27016 0.781588 8.53409 0.192923 9.87543 0.0831546C11.2168 -0.0266137 12.5534 0.349237 13.6597 1.14727C14.766 1.9453 15.5742 3.11664 15.9479 4.4636C16.5694 4.07721 17.2799 3.87382 18.0036 3.87513C18.8488 3.87513 19.6334 4.14767 20.2813 4.61205Z" fill="#456AE7"/>
</g>
<defs>
<clipPath id="clip0_280_5333">
<rect width="24.1071" height="14.4643" fill="white" transform="translate(0.107422 0.0712891)"/>
</clipPath>
</defs>
</svg>
