<svg width="18" height="17" viewBox="0 0 18 17" fill="none" xmlns="http://www.w3.org/2000/svg">
<path d="M12.8622 0.34082H5.47022C2.99672 0.34082 0.984375 2.35316 0.984375 4.82669V12.2186C0.984375 14.6921 2.99672 16.7045 5.47022 16.7045H12.8622C15.3357 16.7045 17.348 14.6921 17.348 12.2186V4.82669C17.348 2.35316 15.3357 0.34082 12.8622 0.34082ZM9.16619 13.0109C6.69135 13.0109 4.67799 10.9975 4.67799 8.52264C4.67799 6.0478 6.69138 4.03446 9.16619 4.03446C11.641 4.03446 13.6544 6.04783 13.6544 8.52264C13.6544 10.9974 11.641 13.0109 9.16619 13.0109ZM13.9229 5.12961C13.171 5.12961 12.5593 4.51789 12.5593 3.766C12.5593 3.0141 13.171 2.40235 13.9229 2.40235C14.6748 2.40235 15.2865 3.01407 15.2865 3.76597C15.2865 4.51786 14.6748 5.12961 13.9229 5.12961Z" fill="#456AE7"/>
</svg>
