<svg width="19" height="17" viewBox="0 0 19 17" fill="none" xmlns="http://www.w3.org/2000/svg">
<path d="M1.21256 8.18692L5.23393 9.68782L6.79045 14.6936C6.89004 15.0142 7.28208 15.1327 7.5423 14.9199L9.78388 13.0925C10.0188 12.9011 10.3535 12.8916 10.5991 13.0698L14.6421 16.0051C14.9205 16.2074 15.3148 16.0549 15.3846 15.7185L18.3464 1.47212C18.4226 1.10469 18.0615 0.79817 17.7117 0.933484L1.20784 7.30016C0.800565 7.45724 0.804114 8.03386 1.21256 8.18692ZM6.5396 8.88885L14.3989 4.04832C14.5401 3.96159 14.6854 4.15257 14.5641 4.26508L8.07797 10.2943C7.84998 10.5065 7.70292 10.7905 7.66126 11.0988L7.44032 12.7362C7.41106 12.9548 7.10395 12.9765 7.04362 12.7649L6.19387 9.7791C6.09654 9.43855 6.23837 9.07478 6.5396 8.88885Z" fill="#456AE7"/>
</svg>
