<svg width="16" height="19" viewBox="0 0 16 19" fill="none" xmlns="http://www.w3.org/2000/svg">
<path d="M15.9502 5.18647C14.9659 5.18647 14.0577 4.86038 13.3283 4.31027C12.4919 3.67964 11.8909 2.75459 11.6787 1.68839C11.6261 1.42496 11.5978 1.1531 11.5951 0.874512H8.78326V8.55788L8.77989 12.7664C8.77989 13.8916 8.04719 14.8456 7.03153 15.1811C6.73676 15.2785 6.41842 15.3246 6.08694 15.3064C5.66383 15.2832 5.26733 15.1555 4.92271 14.9494C4.18934 14.5107 3.69212 13.7151 3.67864 12.8048C3.65742 11.3822 4.8075 10.2224 6.2291 10.2224C6.50971 10.2224 6.77921 10.2682 7.03153 10.3514V8.25133V7.4964C6.7654 7.45699 6.49455 7.43644 6.22068 7.43644C4.66467 7.43644 3.20938 8.08323 2.16912 9.24847C1.38286 10.1291 0.911241 11.2525 0.838477 12.4306C0.743142 13.9781 1.30942 15.4493 2.40763 16.5347C2.56899 16.694 2.73843 16.8419 2.91563 16.9783C3.85718 17.7029 5.00828 18.0957 6.22068 18.0957C6.49455 18.0957 6.7654 18.0755 7.03153 18.0361C8.16409 17.8683 9.20907 17.3499 10.0337 16.5347C11.047 15.5331 11.6069 14.2035 11.613 12.7883L11.5985 6.50364C12.0819 6.87656 12.6105 7.18513 13.1778 7.42465C14.06 7.79689 14.9955 7.98554 15.9583 7.9852V5.94342V5.1858C15.959 5.18647 15.9509 5.18647 15.9502 5.18647Z" fill="#456AE7"/>
</svg>
