<svg width="68" height="88" viewBox="0 0 68 88" fill="none" xmlns="http://www.w3.org/2000/svg">
<path opacity="0.3" d="M42.2669 7.06469L62.4474 41.9405C63.1837 43.2144 63.1843 44.7792 62.4486 46.0542L62.4473 46.0565L42.2669 7.06469ZM42.2669 7.06469C42.2668 7.06446 42.2666 7.06422 42.2665 7.06399C42.2664 7.06388 42.2664 7.06378 42.2663 7.06368C41.5269 5.78739 40.1626 5 38.681 5H-1.68186C-3.16246 5 -4.52716 5.78681 -5.26827 7.06522C-5.26845 7.06551 -5.26862 7.06581 -5.26879 7.06611L-25.4474 41.9407C-25.4476 41.941 -25.4477 41.9413 -25.4479 41.9415C-25.4481 41.9419 -25.4482 41.9422 -25.4484 41.9425C-26.1838 43.2161 -26.184 44.78 -25.4483 46.0544C-25.4482 46.0547 -25.448 46.055 -25.4478 46.0553C-25.4476 46.0556 -25.4474 46.0559 -25.4472 46.0563L-5.26879 80.9337M42.2669 7.06469L-5.26879 80.9337M-5.26879 80.9337C-5.26827 80.9346 -5.26775 80.9355 -5.26723 80.9364L-5.26879 80.9337Z" stroke="url(#paint0_linear_82_22460)" stroke-width="10"/>
<defs>
<linearGradient id="paint0_linear_82_22460" x1="18.5" y1="0" x2="18.5" y2="88" gradientUnits="userSpaceOnUse">
<stop stop-color="#6D54DB"/>
<stop offset="1" stop-color="#59A2DD"/>
</linearGradient>
</defs>
</svg>
