<svg width="73" height="163" viewBox="0 0 73 163" fill="none" xmlns="http://www.w3.org/2000/svg">
<path opacity="0.3" d="M139.102 10.9468L176.407 75.549L139.102 10.9468ZM139.102 10.9468C136.974 7.26317 133.051 5 128.804 5H54.1941C49.949 5 46.0262 7.26253 43.8952 10.9482L6.59318 75.5492C4.46937 79.2308 4.46883 83.7601 6.59224 87.4431C6.59261 87.4437 6.59297 87.4444 6.59334 87.445L43.8952 152.051C46.0263 155.737 49.9492 158 54.1941 158H128.804C133.05 158 136.973 155.737 139.101 152.054C139.101 152.054 139.101 152.053 139.102 152.053L176.407 87.4452C178.531 83.7625 178.531 79.2331 176.408 75.5511L139.102 10.9468Z" stroke="url(#paint0_linear_82_22459)" stroke-width="10"/>
<defs>
<linearGradient id="paint0_linear_82_22459" x1="91.5" y1="0" x2="91.5" y2="163" gradientUnits="userSpaceOnUse">
<stop stop-color="#6D54DB"/>
<stop offset="1" stop-color="#59A2DD"/>
</linearGradient>
</defs>
</svg>
