<svg width="169" height="70" viewBox="0 0 169 70" fill="none" xmlns="http://www.w3.org/2000/svg">
<rect opacity="0.33" width="169" height="70" rx="20" fill="url(#paint0_linear_833_4)"/>
<path opacity="0.14" d="M43.944 41.408V27.392C43.944 22.9973 45.5227 19.328 48.68 16.384C51.8373 13.44 55.784 11.968 60.52 11.968C65.256 11.968 69.2027 13.44 72.36 16.384C75.5173 19.328 77.096 22.9973 77.096 27.392V41.408C77.096 45.8027 75.5173 49.472 72.36 52.416C69.2027 55.36 65.256 56.832 60.52 56.832C55.784 56.832 51.8373 55.36 48.68 52.416C45.5227 49.472 43.944 45.8027 43.944 41.408ZM51.304 27.264V41.472C51.304 43.8187 52.1787 45.8027 53.928 47.424C55.6773 49.0027 57.8747 49.792 60.52 49.792C63.1653 49.792 65.3413 49.0027 67.048 47.424C68.84 45.8027 69.736 43.8187 69.736 41.472V27.264C69.736 24.9173 68.84 22.9547 67.048 21.376C65.3413 19.7973 63.1653 19.008 60.52 19.008C57.8747 19.008 55.6773 19.7973 53.928 21.376C52.1787 22.9973 51.304 24.96 51.304 27.264ZM104.959 25.344C104.959 23.552 104.233 22.0587 102.783 20.864C101.289 19.6267 99.5398 19.008 97.5345 19.008C95.6145 19.008 93.8865 19.584 92.3505 20.736C90.8145 21.888 89.6412 23.488 88.8305 25.536L82.0465 22.272C83.4545 19.072 85.5238 16.5547 88.2545 14.72C91.0278 12.8853 94.1212 11.968 97.5345 11.968C101.801 11.968 105.364 13.2693 108.223 15.872C111.167 18.432 112.639 21.5253 112.639 25.152C112.639 27.3707 111.913 29.6533 110.463 32C109.012 34.3467 106.665 37.0773 103.423 40.192L94.2065 48.96H113.023V56H82.8145V50.496L98.8145 35.264C102.911 31.2533 104.959 27.9467 104.959 25.344ZM119.077 55.616C118.266 54.7627 117.861 53.7173 117.861 52.48C117.861 51.2427 118.266 50.2187 119.077 49.408C119.887 48.5547 120.911 48.128 122.149 48.128C123.386 48.128 124.41 48.5547 125.22 49.408C126.074 50.2187 126.501 51.2427 126.501 52.48C126.501 53.7173 126.074 54.7627 125.22 55.616C124.41 56.4267 123.386 56.832 122.149 56.832C120.911 56.832 119.887 56.4267 119.077 55.616Z" fill="url(#paint1_linear_833_4)"/>
<defs>
<linearGradient id="paint0_linear_833_4" x1="157.888" y1="34.9977" x2="13.7854" y2="34.9977" gradientUnits="userSpaceOnUse">
<stop stop-color="#2E286F"/>
<stop offset="1" stop-color="#34179B"/>
</linearGradient>
<linearGradient id="paint1_linear_833_4" x1="135.164" y1="41.1584" x2="132.74" y2="18.7316" gradientUnits="userSpaceOnUse">
<stop offset="0.0416667" stop-color="#4E9CDB"/>
<stop offset="0.46875" stop-color="#5761D7"/>
<stop offset="0.9999" stop-color="#7628DA"/>
</linearGradient>
</defs>
</svg>
