<svg width="155" height="70" viewBox="0 0 155 70" fill="none" xmlns="http://www.w3.org/2000/svg">
<rect opacity="0.33" width="155" height="70" rx="20" fill="url(#paint0_linear_833_5)"/>
<path opacity="0.14" d="M35.944 42.408V28.392C35.944 23.9973 37.5227 20.328 40.68 17.384C43.8373 14.44 47.784 12.968 52.52 12.968C57.256 12.968 61.2027 14.44 64.36 17.384C67.5173 20.328 69.096 23.9973 69.096 28.392V42.408C69.096 46.8027 67.5173 50.472 64.36 53.416C61.2027 56.36 57.256 57.832 52.52 57.832C47.784 57.832 43.8373 56.36 40.68 53.416C37.5227 50.472 35.944 46.8027 35.944 42.408ZM43.304 28.264V42.472C43.304 44.8187 44.1787 46.8027 45.928 48.424C47.6773 50.0027 49.8747 50.792 52.52 50.792C55.1653 50.792 57.3413 50.0027 59.048 48.424C60.84 46.8027 61.736 44.8187 61.736 42.472V28.264C61.736 25.9173 60.84 23.9547 59.048 22.376C57.3413 20.7973 55.1653 20.008 52.52 20.008C49.8747 20.008 47.6773 20.7973 45.928 22.376C44.1787 23.9973 43.304 25.96 43.304 28.264ZM96.9585 25.704C96.9585 24.0827 96.2118 22.7387 94.7185 21.672C93.2252 20.5627 91.3265 20.008 89.0225 20.008C87.1452 20.008 85.4812 20.392 84.0305 21.16C82.6225 21.8853 81.6198 22.888 81.0225 24.168L74.3665 20.968C75.6465 18.4933 77.5878 16.552 80.1905 15.144C82.8358 13.6933 85.8012 12.968 89.0865 12.968C93.4812 12.968 97.1718 14.1627 100.159 16.552C103.103 18.9413 104.575 21.928 104.575 25.512C104.575 29.2667 102.911 32.296 99.5825 34.6C103.636 37.1173 105.663 40.5093 105.663 44.776C105.663 48.5307 104.105 51.6453 100.991 54.12C97.9612 56.5947 94.1212 57.832 89.4705 57.832C85.7585 57.832 82.4732 56.9787 79.6145 55.272C76.7985 53.5227 74.8785 51.24 73.8545 48.424L80.8945 45.928C81.3638 47.3787 82.3665 48.552 83.9025 49.448C85.4812 50.344 87.3372 50.792 89.4705 50.792C91.9025 50.792 93.9292 50.1947 95.5505 49C97.2145 47.8053 98.0465 46.2907 98.0465 44.456C98.0465 42.7067 97.2358 41.2347 95.6145 40.04C94.0358 38.8453 92.0518 38.248 89.6625 38.248H86.3985V31.592H88.6385C90.9852 31.592 92.9478 31.0373 94.5265 29.928C96.1478 28.8187 96.9585 27.4107 96.9585 25.704ZM111.577 56.616C110.766 55.7627 110.361 54.7173 110.361 53.48C110.361 52.2427 110.766 51.2187 111.577 50.408C112.387 49.5547 113.411 49.128 114.649 49.128C115.886 49.128 116.91 49.5547 117.72 50.408C118.574 51.2187 119.001 52.2427 119.001 53.48C119.001 54.7173 118.574 55.7627 117.72 56.616C116.91 57.4267 115.886 57.832 114.649 57.832C113.411 57.832 112.387 57.4267 111.577 56.616Z" fill="url(#paint1_linear_833_5)"/>
<defs>
<linearGradient id="paint0_linear_833_5" x1="144.808" y1="34.9977" x2="12.6434" y2="34.9977" gradientUnits="userSpaceOnUse">
<stop stop-color="#2E286F"/>
<stop offset="1" stop-color="#34179B"/>
</linearGradient>
<linearGradient id="paint1_linear_833_5" x1="128.234" y1="42.1584" x2="125.837" y2="19.7258" gradientUnits="userSpaceOnUse">
<stop offset="0.0416667" stop-color="#4E9CDB"/>
<stop offset="0.46875" stop-color="#5761D7"/>
<stop offset="0.9999" stop-color="#7628DA"/>
</linearGradient>
</defs>
</svg>
