<svg width="169" height="70" viewBox="0 0 169 70" fill="none" xmlns="http://www.w3.org/2000/svg">
<rect opacity="0.33" width="169" height="70" rx="20" fill="url(#paint0_linear_833_2)"/>
<path opacity="0.14" d="M51.944 39.408V25.392C51.944 20.9973 53.5227 17.328 56.68 14.384C59.8373 11.44 63.784 9.968 68.52 9.968C73.256 9.968 77.2027 11.44 80.36 14.384C83.5173 17.328 85.096 20.9973 85.096 25.392V39.408C85.096 43.8027 83.5173 47.472 80.36 50.416C77.2027 53.36 73.256 54.832 68.52 54.832C63.784 54.832 59.8373 53.36 56.68 50.416C53.5227 47.472 51.944 43.8027 51.944 39.408ZM59.304 25.264V39.472C59.304 41.8187 60.1787 43.8027 61.928 45.424C63.6773 47.0027 65.8747 47.792 68.52 47.792C71.1653 47.792 73.3413 47.0027 75.048 45.424C76.84 43.8027 77.736 41.8187 77.736 39.472V25.264C77.736 22.9173 76.84 20.9547 75.048 19.376C73.3413 17.7973 71.1653 17.008 68.52 17.008C65.8747 17.008 63.6773 17.7973 61.928 19.376C60.1787 20.9973 59.304 22.96 59.304 25.264ZM101.759 19.888L93.9505 23.792L90.8785 17.328L103.871 10.8H109.055V54H101.759V19.888ZM119.202 53.616C118.391 52.7627 117.986 51.7173 117.986 50.48C117.986 49.2427 118.391 48.2187 119.202 47.408C120.012 46.5547 121.036 46.128 122.274 46.128C123.511 46.128 124.535 46.5547 125.345 47.408C126.199 48.2187 126.626 49.2427 126.626 50.48C126.626 51.7173 126.199 52.7627 125.345 53.616C124.535 54.4267 123.511 54.832 122.274 54.832C121.036 54.832 120.012 54.4267 119.202 53.616Z" fill="url(#paint1_linear_833_2)"/>
<defs>
<linearGradient id="paint0_linear_833_2" x1="157.888" y1="34.9977" x2="13.7854" y2="34.9977" gradientUnits="userSpaceOnUse">
<stop stop-color="#2E286F"/>
<stop offset="1" stop-color="#34179B"/>
</linearGradient>
<linearGradient id="paint1_linear_833_2" x1="134.604" y1="39.1584" x2="131.944" y2="16.7858" gradientUnits="userSpaceOnUse">
<stop offset="0.0416667" stop-color="#4E9CDB"/>
<stop offset="0.46875" stop-color="#5761D7"/>
<stop offset="0.9999" stop-color="#7628DA"/>
</linearGradient>
</defs>
</svg>
