<svg width="144" height="138" viewBox="0 0 144 138" fill="none" xmlns="http://www.w3.org/2000/svg">
<path opacity="0.11" d="M107.454 13.7817H35.7507L0 75.9919L35.7507 138H107.454L143.205 75.9919L107.454 13.7817Z" fill="url(#paint0_linear_81_18923)" fill-opacity="0.6"/>
<path d="M43.4255 21.134C43.4255 27.3137 38.4149 32.1573 32.4022 32.1573C26.2225 32.1573 21.3789 27.1467 21.3789 21.134C21.3789 14.9543 26.3895 10.1107 32.4022 10.1107C38.4149 9.94373 43.4255 14.9543 43.4255 21.134Z" fill="url(#paint1_linear_81_18923)"/>
<path d="M12.1901 1.83789C12.1901 2.86784 11.355 3.6751 10.3528 3.6751C9.32289 3.6751 8.51562 2.84 8.51562 1.83789C8.51562 0.807936 9.35072 0.000676295 10.3528 0.000676295C11.355 -0.0271603 12.1901 0.807936 12.1901 1.83789Z" fill="url(#paint2_linear_81_18923)"/>
<path d="M73.5841 83.6471H70.5052V86.706H73.5841C74.4319 86.706 75.1235 86.0205 75.1235 85.1766C75.1236 84.3326 74.4321 83.6471 73.5841 83.6471ZM73.5841 89.7647H70.5052V92.8236H73.5841C74.4319 92.8236 75.1235 92.1381 75.1235 91.2942C75.1235 90.4503 74.4321 89.7647 73.5841 89.7647ZM72.0448 74.4706C64.3931 74.4706 58.1901 80.6333 58.1901 88.2353C58.1901 95.8373 64.3931 102 72.0448 102C79.6964 102 85.8994 95.8373 85.8994 88.2353C85.8994 80.6332 79.6964 74.4706 72.0448 74.4706ZM78.2023 91.294C78.2023 93.8241 76.1307 95.8823 73.5841 95.8823V97.4116C73.5841 98.2569 72.8955 98.941 72.0448 98.941C71.194 98.941 70.5054 98.2569 70.5054 97.4116V95.8823C70.2253 95.8823 67.6855 95.8823 67.4265 95.8823C66.5756 95.8823 65.8872 95.1982 65.8872 94.3527C65.8872 93.5075 66.5758 92.8234 67.4265 92.8234V83.6469C66.5756 83.6469 65.8872 82.9628 65.8872 82.1176C65.8872 81.2723 66.5758 80.5882 67.4265 80.5882H70.5054V79.0589C70.5054 78.2134 71.194 77.5295 72.0448 77.5295C72.8955 77.5295 73.5841 78.2136 73.5841 79.0589V80.5882C76.1307 80.5882 78.2023 82.6464 78.2023 85.1765C78.2023 86.3504 77.7574 87.4228 77.0238 88.2353C77.7574 89.0479 78.2023 90.1202 78.2023 91.294ZM92.0389 62.7565C92.4953 56.2417 87.0029 50 79.7418 50C75.5928 50 71.7742 52.0731 69.5193 55.4232C67.6191 53.9028 65.2648 53.0589 62.8085 53.0589C57.2132 53.0589 52.5979 57.3201 52.0807 62.7477C48.4187 64.0128 45.875 67.4794 45.875 71.4119C45.875 76.4721 50.0182 80.5884 55.1114 80.5884H56.9809C59.79 75.1494 65.4815 71.4118 72.0448 71.4118C78.608 71.4118 84.2996 75.1494 87.1086 80.5882H88.9781C94.0713 80.5882 98.2145 76.472 98.2145 71.4118C98.2147 67.4866 95.689 64.044 92.0389 62.7565Z" fill="#5994F8"/>
<defs>
<linearGradient id="paint0_linear_81_18923" x1="153.235" y1="81.5143" x2="122.079" y2="-16.8445" gradientUnits="userSpaceOnUse">
<stop offset="0.0416667" stop-color="#4E9CDB"/>
<stop offset="0.46875" stop-color="#5761D7"/>
<stop offset="0.9999" stop-color="#7628DA"/>
</linearGradient>
<linearGradient id="paint1_linear_81_18923" x1="24.4643" y1="13.2036" x2="40.1682" y2="28.9076" gradientUnits="userSpaceOnUse">
<stop stop-color="#7DC6FD"/>
<stop offset="0.303" stop-color="#548EF7"/>
<stop offset="1" stop-color="#A728DA"/>
</linearGradient>
<linearGradient id="paint2_linear_81_18923" x1="9.02985" y1="0.516154" x2="11.6472" y2="3.13349" gradientUnits="userSpaceOnUse">
<stop stop-color="#7DC6FD"/>
<stop offset="0.303" stop-color="#548EF7"/>
<stop offset="1" stop-color="#A728DA"/>
</linearGradient>
</defs>
</svg>
