<svg width="47" height="42" viewBox="0 0 47 42" fill="none" xmlns="http://www.w3.org/2000/svg">
<path opacity="0.94" d="M34.6711 3.42375L44.2517 20.0689L34.6711 3.42375ZM34.6711 3.42375C34.3398 2.84844 33.733 2.5 33.0809 2.5H13.9187C13.2673 2.5 12.6605 2.84791 12.3282 3.42394C12.3281 3.42411 12.328 3.42428 12.328 3.42445L2.74826 20.0691C2.41746 20.6444 2.41719 21.3527 2.74779 21.9286L34.6711 3.42375ZM12.328 38.5754L2.74834 21.9295L44.2524 20.07C44.5825 20.6451 44.5826 21.353 44.2523 21.9285C44.2523 21.9286 44.2522 21.9287 44.2521 21.9288C44.252 21.9291 44.2518 21.9294 44.2517 21.9296L34.671 38.5763C34.6709 38.5764 34.6708 38.5766 34.6707 38.5767C34.3394 39.1517 33.7328 39.5 33.0808 39.5H13.9187C13.2676 39.5 12.6608 39.1522 12.3285 38.5763C12.3283 38.576 12.3281 38.5757 12.328 38.5754Z" stroke="url(#paint0_linear_159_2992)" stroke-width="5"/>
<defs>
<linearGradient id="paint0_linear_159_2992" x1="23.5" y1="0" x2="23.5" y2="42" gradientUnits="userSpaceOnUse">
<stop stop-color="#6D54DB"/>
<stop offset="1" stop-color="#59A2DD"/>
</linearGradient>
</defs>
</svg>
