<svg width="81" height="80" viewBox="0 0 81 80" fill="none" xmlns="http://www.w3.org/2000/svg">
<g filter="url(#filter0_d_724_14)">
<g filter="url(#filter1_bd_724_14)">
<ellipse cx="40.5" cy="36" rx="23.5" ry="23" fill="white" fill-opacity="0.08" shape-rendering="crispEdges"/>
</g>
<path d="M41.363 39.447C41.363 37.599 40.484 36.233 38.668 35.721C39.993 35.09 40.684 34.134 40.684 32.647C40.684 29.715 38.492 29 35.963 29H29V43.721H36.158C38.842 43.721 41.363 42.438 41.363 39.447ZM32.246 31.513H35.292C36.463 31.513 37.517 31.841 37.517 33.195C37.517 34.445 36.697 34.948 35.537 34.948H32.246V31.513ZM32.245 41.221V37.167H35.783C37.212 37.167 38.116 37.761 38.116 39.269C38.116 40.756 37.037 41.221 35.716 41.221H32.245Z" fill="#456AE7"/>
<path d="M47.7962 44.0001C50.3502 44.0001 52.0042 42.8531 52.8002 40.4151H50.2082C49.9292 41.3251 48.7792 41.8061 47.8872 41.8061C46.1662 41.8061 45.2622 40.8011 45.2622 39.0931H52.9752C53.2192 35.6751 51.3152 32.7621 47.7952 32.7621C44.5362 32.7621 42.3242 35.2041 42.3242 38.4031C42.3242 41.7231 44.4202 44.0001 47.7962 44.0001V44.0001ZM47.7042 34.9741C49.1792 34.9741 49.9212 35.8381 50.0452 37.2511H45.2662C45.3632 35.8501 46.2962 34.9741 47.7042 34.9741Z" fill="#456AE7"/>
<path d="M44.667 29.7728H50.655V31.2228H44.667V29.7728Z" fill="#456AE7"/>
</g>
<defs>
<filter id="filter0_d_724_14" x="13" y="13" width="55" height="54" filterUnits="userSpaceOnUse" color-interpolation-filters="sRGB">
<feFlood flood-opacity="0" result="BackgroundImageFix"/>
<feColorMatrix in="SourceAlpha" type="matrix" values="0 0 0 0 0 0 0 0 0 0 0 0 0 0 0 0 0 0 127 0" result="hardAlpha"/>
<feOffset dy="4"/>
<feGaussianBlur stdDeviation="2"/>
<feComposite in2="hardAlpha" operator="out"/>
<feColorMatrix type="matrix" values="0 0 0 0 0 0 0 0 0 0 0 0 0 0 0 0 0 0 0.25 0"/>
<feBlend mode="normal" in2="BackgroundImageFix" result="effect1_dropShadow_724_14"/>
<feBlend mode="normal" in="SourceGraphic" in2="effect1_dropShadow_724_14" result="shape"/>
</filter>
<filter id="filter1_bd_724_14" x="-13" y="-17" width="107" height="106" filterUnits="userSpaceOnUse" color-interpolation-filters="sRGB">
<feFlood flood-opacity="0" result="BackgroundImageFix"/>
<feGaussianBlur in="BackgroundImage" stdDeviation="15"/>
<feComposite in2="SourceAlpha" operator="in" result="effect1_backgroundBlur_724_14"/>
<feColorMatrix in="SourceAlpha" type="matrix" values="0 0 0 0 0 0 0 0 0 0 0 0 0 0 0 0 0 0 127 0" result="hardAlpha"/>
<feOffset dy="4"/>
<feGaussianBlur stdDeviation="8.5"/>
<feComposite in2="hardAlpha" operator="out"/>
<feColorMatrix type="matrix" values="0 0 0 0 0 0 0 0 0 0 0 0 0 0 0 0 0 0 0.12 0"/>
<feBlend mode="normal" in2="effect1_backgroundBlur_724_14" result="effect2_dropShadow_724_14"/>
<feBlend mode="normal" in="SourceGraphic" in2="effect2_dropShadow_724_14" result="shape"/>
</filter>
</defs>
</svg>
