<svg width="80" height="80" viewBox="0 0 80 80" fill="none" xmlns="http://www.w3.org/2000/svg">
<g filter="url(#filter0_bd_724_7)">
<circle cx="40" cy="36" r="23" fill="white" fill-opacity="0.08" shape-rendering="crispEdges"/>
</g>
<path d="M30.1657 37.2617L34.3658 38.8293L35.9915 44.0576C36.0955 44.3924 36.505 44.5162 36.7768 44.294L39.118 42.3854C39.3634 42.1854 39.7129 42.1754 39.9694 42.3616L44.1921 45.4274C44.4829 45.6387 44.8947 45.4794 44.9677 45.1281L48.061 30.2485C48.1406 29.8647 47.7635 29.5446 47.3981 29.6859L30.1608 36.3356C29.7354 36.4996 29.7391 37.1019 30.1657 37.2617ZM35.7295 37.9949L43.9381 32.9392C44.0856 32.8486 44.2374 33.0481 44.1107 33.1656L37.3363 39.4628C37.0981 39.6844 36.9445 39.981 36.901 40.303L36.6703 42.0132C36.6397 42.2415 36.3189 42.2642 36.2559 42.0432L35.3684 38.9247C35.2668 38.569 35.4149 38.189 35.7295 37.9949Z" fill="#456AE7"/>
<defs>
<filter id="filter0_bd_724_7" x="-13" y="-17" width="106" height="106" filterUnits="userSpaceOnUse" color-interpolation-filters="sRGB">
<feFlood flood-opacity="0" result="BackgroundImageFix"/>
<feGaussianBlur in="BackgroundImage" stdDeviation="15"/>
<feComposite in2="SourceAlpha" operator="in" result="effect1_backgroundBlur_724_7"/>
<feColorMatrix in="SourceAlpha" type="matrix" values="0 0 0 0 0 0 0 0 0 0 0 0 0 0 0 0 0 0 127 0" result="hardAlpha"/>
<feOffset dy="4"/>
<feGaussianBlur stdDeviation="8.5"/>
<feComposite in2="hardAlpha" operator="out"/>
<feColorMatrix type="matrix" values="0 0 0 0 0 0 0 0 0 0 0 0 0 0 0 0 0 0 0.12 0"/>
<feBlend mode="normal" in2="effect1_backgroundBlur_724_7" result="effect2_dropShadow_724_7"/>
<feBlend mode="normal" in="SourceGraphic" in2="effect2_dropShadow_724_7" result="shape"/>
</filter>
</defs>
</svg>
