<svg width="81" height="80" viewBox="0 0 81 80" fill="none" xmlns="http://www.w3.org/2000/svg">
<g filter="url(#filter0_bd_724_8)">
<ellipse cx="40.5" cy="36" rx="23.5" ry="23" fill="white" fill-opacity="0.08" shape-rendering="crispEdges"/>
</g>
<path d="M49.1106 32.0392C48.0825 32.0392 47.1339 31.6987 46.3722 31.1241C45.4986 30.4654 44.8709 29.4993 44.6492 28.3857C44.5943 28.1106 44.5648 27.8266 44.5619 27.5356H41.6251V35.5605L41.6216 39.9561C41.6216 41.1312 40.8563 42.1277 39.7955 42.4781C39.4877 42.5798 39.1552 42.628 38.8089 42.609C38.367 42.5847 37.9529 42.4514 37.593 42.236C36.827 41.7779 36.3077 40.9469 36.2936 39.9962C36.2714 38.5104 37.4726 37.299 38.9574 37.299C39.2505 37.299 39.532 37.3468 39.7955 37.4337V35.2403V34.4518C39.5176 34.4107 39.2347 34.3892 38.9486 34.3892C37.3235 34.3892 35.8035 35.0648 34.717 36.2818C33.8958 37.2015 33.4032 38.3749 33.3272 39.6053C33.2276 41.2217 33.8191 42.7582 34.9661 43.8918C35.1346 44.0582 35.3116 44.2127 35.4967 44.3552C36.4801 45.112 37.6823 45.5223 38.9486 45.5223C39.2347 45.5223 39.5176 45.5011 39.7955 45.46C40.9784 45.2848 42.0698 44.7433 42.9311 43.8918C43.9895 42.8458 44.5743 41.457 44.5806 39.979L44.5655 33.415C45.0704 33.8044 45.6224 34.1267 46.2149 34.3769C47.1364 34.7657 48.1135 34.9627 49.119 34.9624V32.8298V32.0385C49.1197 32.0392 49.1113 32.0392 49.1106 32.0392Z" fill="#456AE7"/>
<defs>
<filter id="filter0_bd_724_8" x="-13" y="-17" width="107" height="106" filterUnits="userSpaceOnUse" color-interpolation-filters="sRGB">
<feFlood flood-opacity="0" result="BackgroundImageFix"/>
<feGaussianBlur in="BackgroundImage" stdDeviation="15"/>
<feComposite in2="SourceAlpha" operator="in" result="effect1_backgroundBlur_724_8"/>
<feColorMatrix in="SourceAlpha" type="matrix" values="0 0 0 0 0 0 0 0 0 0 0 0 0 0 0 0 0 0 127 0" result="hardAlpha"/>
<feOffset dy="4"/>
<feGaussianBlur stdDeviation="8.5"/>
<feComposite in2="hardAlpha" operator="out"/>
<feColorMatrix type="matrix" values="0 0 0 0 0 0 0 0 0 0 0 0 0 0 0 0 0 0 0.12 0"/>
<feBlend mode="normal" in2="effect1_backgroundBlur_724_8" result="effect2_dropShadow_724_8"/>
<feBlend mode="normal" in="SourceGraphic" in2="effect2_dropShadow_724_8" result="shape"/>
</filter>
</defs>
</svg>
