<svg width="75" height="138" viewBox="0 0 75 138" fill="none" xmlns="http://www.w3.org/2000/svg">
<path opacity="0.94" d="M33.5699 9.15343L71.0796 63.4523C73.6399 67.1628 73.6402 71.6663 71.0802 75.3777L33.5699 9.15343ZM33.5699 9.15343C30.961 5.37891 26.0211 2.91797 20.5081 2.91797H-54.5097C-60.0215 2.91797 -64.9601 5.37826 -67.5716 9.15307C-67.5719 9.15338 -67.5721 9.1537 -67.5723 9.15401L-105.079 63.4524C-105.08 63.4527 -105.08 63.4529 -105.08 63.4532C-107.64 67.1637 -107.64 71.6673 -105.079 75.3785L-67.5723 129.682C-64.9609 133.457 -60.0219 135.918 -54.5097 135.918H20.5077C26.021 135.918 30.961 133.457 33.5694 129.682L71.0795 75.3786L33.5699 9.15343Z" stroke="url(#paint0_linear_166_4788)" stroke-width="4"/>
<defs>
<linearGradient id="paint0_linear_166_4788" x1="-17" y1="0.917969" x2="-17" y2="137.918" gradientUnits="userSpaceOnUse">
<stop stop-color="#6D54DB"/>
<stop offset="1" stop-color="#59A2DD"/>
</linearGradient>
</defs>
</svg>
