<svg width="52" height="44" viewBox="0 0 52 44" fill="none" xmlns="http://www.w3.org/2000/svg">
<path opacity="0.22" d="M12.9817 0.917969H39.0183L52 22.4529L39.0183 43.918H12.9817L0 22.4529L12.9817 0.917969Z" fill="url(#paint0_linear_848_7)"/>
<g clip-path="url(#clip0_848_7)">
<path d="M32.5594 23.595L25.3232 31.9179C29.8266 31.9179 33.4947 28.3412 33.6416 23.8735C33.6466 23.7209 33.5227 23.595 33.37 23.595H32.5594Z" fill="#0761E1"/>
<path d="M25.0441 15.2766C21.6961 15.3868 18.8488 17.4746 17.6318 20.4093V23.595H25.3228V15.5483C25.3228 15.3956 25.1968 15.2716 25.0441 15.2766Z" fill="url(#paint1_linear_848_7)"/>
<path d="M17.632 20.4093C17.2251 21.3907 17 22.4665 17 23.5951C17 25.8934 17.9316 27.9741 19.4377 29.4803H25.3229V23.5951L17.632 20.4093Z" fill="#3B88F5"/>
<path d="M25.3227 23.595L19.4375 29.4802C20.9437 30.9864 23.0244 31.9179 25.3227 31.9179C29.3191 31.9179 32.5589 28.1916 32.5589 23.595H25.3227V23.595Z" fill="#3B88F5"/>
<path d="M26.8247 13.9181C26.816 13.9178 26.8073 13.9181 26.7988 13.9186L33.9135 22.3724H34.7286C34.8814 22.3724 35.0053 22.2465 35.0003 22.0938C34.8563 17.6436 31.2748 14.0621 26.8247 13.9181Z" fill="url(#paint2_linear_848_7)"/>
<path d="M26.7987 13.9186C26.7954 13.9184 26.792 13.9182 26.7887 13.9181C26.6557 13.9132 26.5459 14.037 26.5459 14.1898C26.5459 14.0457 26.6579 13.9275 26.7987 13.9186Z" fill="url(#paint3_linear_848_7)"/>
<path d="M26.7987 13.9186C26.6579 13.9275 26.5459 14.0458 26.5459 14.1898V22.1007C26.5459 22.2507 26.6675 22.3724 26.8176 22.3724H33.9134V22.0938C33.788 17.6474 30.6722 14.0684 26.7987 13.9186Z" fill="url(#paint4_linear_848_7)"/>
</g>
<defs>
<linearGradient id="paint0_linear_848_7" x1="-3.64229" y1="24.3646" x2="-3.25562" y2="-26.0228" gradientUnits="userSpaceOnUse">
<stop offset="0.0626893" stop-color="#4E9CDB"/>
<stop offset="0.709088" stop-color="#818AEF"/>
<stop offset="0.9999" stop-color="#7628DA"/>
</linearGradient>
<linearGradient id="paint1_linear_848_7" x1="30.6127" y1="23.4138" x2="24.6889" y2="-4.02291" gradientUnits="userSpaceOnUse">
<stop offset="0.104232" stop-color="#93CAF7"/>
<stop offset="0.554846" stop-color="#6773FF"/>
<stop offset="0.9999" stop-color="#7628DA"/>
</linearGradient>
<linearGradient id="paint2_linear_848_7" x1="40.6417" y1="22.1883" x2="34.8802" y2="-5.81112" gradientUnits="userSpaceOnUse">
<stop offset="0.104232" stop-color="#93CAF7"/>
<stop offset="0.554846" stop-color="#6773FF"/>
<stop offset="0.9999" stop-color="#7628DA"/>
</linearGradient>
<linearGradient id="paint3_linear_848_7" x1="26.9726" y1="14.1839" x2="26.78" y2="13.2868" gradientUnits="userSpaceOnUse">
<stop offset="0.104232" stop-color="#93CAF7"/>
<stop offset="0.554846" stop-color="#6773FF"/>
<stop offset="0.9999" stop-color="#7628DA"/>
</linearGradient>
<linearGradient id="paint4_linear_848_7" x1="38.9809" y1="22.1883" x2="32.6298" y2="-5.53976" gradientUnits="userSpaceOnUse">
<stop offset="0.104232" stop-color="#DDF0FF"/>
<stop offset="0.848293" stop-color="#6773FF"/>
<stop offset="0.9999" stop-color="#7628DA"/>
</linearGradient>
<clipPath id="clip0_848_7">
<rect width="18" height="18" fill="white" transform="translate(17 13.918)"/>
</clipPath>
</defs>
</svg>
