<svg width="47" height="13" viewBox="0 0 47 13" fill="none" xmlns="http://www.w3.org/2000/svg">
<path d="M12.9861 8.11616V7.28533H15.5887V8.11616H12.9861ZM19.0496 10.0781C18.489 10.0781 17.9919 9.93799 17.5581 9.65771C17.1243 9.37075 16.814 8.98703 16.6272 8.50655L17.5781 8.23628C17.7116 8.51656 17.9085 8.74012 18.1687 8.90695C18.429 9.06711 18.726 9.14719 19.0596 9.14719C19.4934 9.14719 19.8571 9.0204 20.1507 8.76681C20.4443 8.51322 20.5912 8.20291 20.5912 7.83588C20.5912 7.44882 20.4343 7.12516 20.1207 6.8649C19.8137 6.60464 19.4233 6.47451 18.9495 6.47451H17.1177L17.458 3.20123H21.0316V4.09212H18.2588L18.1087 5.59363H18.9895C19.7303 5.59363 20.3442 5.80717 20.8314 6.23427C21.3319 6.66137 21.5822 7.19523 21.5822 7.83588C21.5822 8.47652 21.3386 9.01039 20.8514 9.43749C20.3776 9.86458 19.777 10.0781 19.0496 10.0781ZM22.5835 9.90796C22.47 9.78784 22.4133 9.64102 22.4133 9.46752C22.4133 9.29401 22.47 9.15053 22.5835 9.03708C22.7036 8.91696 22.8504 8.8569 23.0239 8.8569C23.1974 8.8569 23.3409 8.91696 23.4543 9.03708C23.5678 9.15053 23.6245 9.29401 23.6245 9.46752C23.6245 9.64102 23.5678 9.78784 23.4543 9.90796C23.3409 10.0214 23.1974 10.0781 23.0239 10.0781C22.8504 10.0781 22.7036 10.0214 22.5835 9.90796ZM28.0421 5.15319C28.0421 4.84621 27.9119 4.57594 27.6517 4.34237C27.4048 4.11548 27.0945 4.00203 26.7207 4.00203C26.4004 4.00203 26.1101 4.09879 25.8499 4.29232C25.5896 4.48585 25.3927 4.75278 25.2593 5.09312L24.3584 4.66269C24.5786 4.17554 24.8956 3.79182 25.3093 3.51154C25.7298 3.22458 26.2002 3.08111 26.7207 3.08111C27.3614 3.08111 27.9086 3.28131 28.3624 3.68171C28.8162 4.08211 29.0431 4.56259 29.0431 5.12316C29.0431 5.47684 28.9296 5.83387 28.7027 6.19423C28.4758 6.54792 28.1121 6.965 27.6116 7.44549L25.96 9.02707H29.1232V9.95801H24.4585V9.23728L26.991 6.80484C27.3581 6.44448 27.625 6.13751 27.7918 5.88392C27.9587 5.63033 28.0421 5.38675 28.0421 5.15319ZM33.6534 5.02305C33.6534 4.7361 33.5233 4.49586 33.263 4.30233C33.0028 4.10213 32.6758 4.00203 32.282 4.00203C31.9617 4.00203 31.6781 4.06876 31.4312 4.20223C31.1909 4.3357 31.0174 4.51254 30.9107 4.73276L30.0398 4.30233C30.2266 3.92195 30.5169 3.62498 30.9107 3.41144C31.3111 3.19122 31.7682 3.08111 32.282 3.08111C32.9627 3.08111 33.5266 3.26462 33.9737 3.63166C34.4208 3.99869 34.6444 4.45248 34.6444 4.99302C34.6444 5.62032 34.3474 6.11081 33.7535 6.4645C34.0805 6.63134 34.3374 6.85823 34.5243 7.14518C34.7178 7.43214 34.8146 7.74579 34.8146 8.08613C34.8146 8.65336 34.5777 9.12717 34.1039 9.50756C33.6367 9.88794 33.0461 10.0781 32.3321 10.0781C31.7715 10.0781 31.2744 9.95133 30.8406 9.69775C30.4135 9.44416 30.1165 9.10715 29.9497 8.68673L30.8806 8.34639C30.9741 8.58663 31.1509 8.78016 31.4112 8.92697C31.6714 9.07379 31.9784 9.14719 32.3321 9.14719C32.7525 9.14719 33.1029 9.04376 33.3831 8.83688C33.6701 8.62333 33.8136 8.3564 33.8136 8.03608C33.8136 7.73578 33.6734 7.47885 33.3931 7.2653C33.1195 7.05843 32.7759 6.95499 32.3621 6.95499H31.8516V6.0641H32.212C32.619 6.0641 32.9594 5.96734 33.233 5.77381C33.5133 5.57361 33.6534 5.32336 33.6534 5.02305ZM37.0206 9.95801L36.4801 9.50756L41.7654 3.20123L42.3059 3.65168L37.0206 9.95801ZM35.6092 4.78281C35.6092 4.29566 35.7727 3.89192 36.0997 3.5716C36.4267 3.2446 36.8304 3.08111 37.3109 3.08111C37.7981 3.08111 38.2018 3.2446 38.5221 3.5716C38.8491 3.89192 39.0126 4.29566 39.0126 4.78281C39.0126 5.26997 38.8491 5.67371 38.5221 5.99403C38.2018 6.31435 37.7981 6.47451 37.3109 6.47451C36.8371 6.47451 36.4334 6.31435 36.0997 5.99403C35.7727 5.66703 35.6092 5.2633 35.6092 4.78281ZM36.4701 4.78281C36.4701 5.01638 36.5501 5.21325 36.7103 5.37341C36.8771 5.53357 37.0773 5.61365 37.3109 5.61365C37.5445 5.61365 37.7413 5.53357 37.9015 5.37341C38.0683 5.21325 38.1518 5.01638 38.1518 4.78281C38.1518 4.54925 38.0683 4.35238 37.9015 4.19222C37.7413 4.02539 37.5445 3.94197 37.3109 3.94197C37.0773 3.94197 36.8771 4.02205 36.7103 4.18221C36.5501 4.34237 36.4701 4.54257 36.4701 4.78281ZM39.7534 8.37642C39.7534 7.89594 39.9169 7.49554 40.2439 7.17521C40.5708 6.84822 40.9746 6.68472 41.4551 6.68472C41.9422 6.68472 42.346 6.84822 42.6663 7.17521C42.9933 7.49554 43.1568 7.89594 43.1568 8.37642C43.1568 8.86358 42.9933 9.27065 42.6663 9.59765C42.346 9.91797 41.9422 10.0781 41.4551 10.0781C40.9813 10.0781 40.5775 9.91797 40.2439 9.59765C39.9169 9.27065 39.7534 8.86358 39.7534 8.37642ZM40.8545 7.78583C40.6943 7.94599 40.6142 8.14285 40.6142 8.37642C40.6142 8.60999 40.6943 8.81019 40.8545 8.97702C41.0213 9.13718 41.2215 9.21726 41.4551 9.21726C41.6886 9.21726 41.8855 9.13718 42.0457 8.97702C42.2058 8.81019 42.2859 8.60999 42.2859 8.37642C42.2859 8.14285 42.2058 7.94599 42.0457 7.78583C41.8855 7.62567 41.6886 7.54559 41.4551 7.54559C41.2215 7.54559 41.0213 7.62567 40.8545 7.78583Z" fill="#5BEFCB"/>
<path d="M3.69413 5.86645L2.85586 5.03913C2.54722 4.73452 2.04681 4.73452 1.73817 5.03913C1.42953 5.34374 1.42953 5.83761 1.73817 6.14222L2.57644 6.96954L0.369141 9.14801H5.90143V3.68798L3.69413 5.86645Z" fill="#5BEFCB"/>
</svg>
