<svg width="54" height="13" viewBox="0 0 54 13" fill="none" xmlns="http://www.w3.org/2000/svg">
<path d="M13.8109 6.98502H11.919V6.12416H13.8109V4.23226H14.6717V6.12416H16.5636V6.98502H14.6717V8.87692H13.8109V6.98502ZM21.2945 5.02305C21.2945 4.7361 21.1643 4.49586 20.9041 4.30233C20.6438 4.10213 20.3168 4.00203 19.9231 4.00203C19.6028 4.00203 19.3192 4.06876 19.0722 4.20223C18.832 4.3357 18.6585 4.51254 18.5517 4.73276L17.6808 4.30233C17.8677 3.92195 18.158 3.62498 18.5517 3.41144C18.9521 3.19122 19.4092 3.08111 19.9231 3.08111C20.6038 3.08111 21.1677 3.26462 21.6148 3.63166C22.0619 3.99869 22.2855 4.45248 22.2855 4.99302C22.2855 5.62032 21.9885 6.11081 21.3946 6.4645C21.7216 6.63134 21.9785 6.85823 22.1653 7.14518C22.3589 7.43214 22.4556 7.74579 22.4556 8.08613C22.4556 8.65336 22.2187 9.12717 21.7449 9.50756C21.2778 9.88794 20.6872 10.0781 19.9731 10.0781C19.4126 10.0781 18.9154 9.95133 18.4816 9.69775C18.0545 9.44416 17.7576 9.10715 17.5908 8.68673L18.5217 8.34639C18.6151 8.58663 18.792 8.78016 19.0522 8.92697C19.3125 9.07379 19.6195 9.14719 19.9731 9.14719C20.3936 9.14719 20.7439 9.04376 21.0242 8.83688C21.3112 8.62333 21.4546 8.3564 21.4546 8.03608C21.4546 7.73578 21.3145 7.47885 21.0342 7.2653C20.7606 7.05843 20.4169 6.95499 20.0032 6.95499H19.4927V6.0641H19.853C20.2601 6.0641 20.6004 5.96734 20.874 5.77381C21.1543 5.57361 21.2945 5.32336 21.2945 5.02305ZM23.3804 8.79684L24.2713 8.3564C24.4048 8.60331 24.5983 8.79684 24.8519 8.93698C25.1121 9.07712 25.4024 9.14719 25.7227 9.14719C26.1965 9.14719 26.5903 9.01039 26.9039 8.73678C27.2176 8.4565 27.3744 8.10949 27.3744 7.69574V7.02506C26.9673 7.42547 26.4635 7.62567 25.8629 7.62567C25.1622 7.62567 24.5749 7.40878 24.1011 6.97501C23.634 6.54792 23.4004 6.00738 23.4004 5.35339C23.4004 4.6994 23.634 4.15885 24.1011 3.73176C24.5749 3.29799 25.1622 3.08111 25.8629 3.08111C26.5569 3.08111 27.1408 3.29799 27.6146 3.73176C28.0884 4.16553 28.3254 4.69606 28.3254 5.32336V7.68573C28.3254 8.36641 28.0751 8.93698 27.5746 9.39745C27.0808 9.85123 26.4635 10.0781 25.7227 10.0781C25.2022 10.0781 24.7351 9.96468 24.3213 9.73779C23.9076 9.51089 23.5939 9.19724 23.3804 8.79684ZM27.3243 5.3634C27.3243 4.97634 27.1842 4.65268 26.9039 4.39242C26.6236 4.13216 26.2766 4.00203 25.8629 4.00203C25.4491 4.00203 25.0988 4.13216 24.8118 4.39242C24.5315 4.64601 24.3914 4.96299 24.3914 5.34338C24.3914 5.73043 24.5315 6.05409 24.8118 6.31435C25.0988 6.57461 25.4491 6.70474 25.8629 6.70474C26.2766 6.70474 26.6236 6.57461 26.9039 6.31435C27.1842 6.05409 27.3243 5.7371 27.3243 5.3634ZM29.3746 9.90796C29.2612 9.78784 29.2044 9.64102 29.2044 9.46752C29.2044 9.29401 29.2612 9.15053 29.3746 9.03708C29.4947 8.91696 29.6415 8.8569 29.8151 8.8569C29.9886 8.8569 30.132 8.91696 30.2455 9.03708C30.3589 9.15053 30.4157 9.29401 30.4157 9.46752C30.4157 9.64102 30.3589 9.78784 30.2455 9.90796C30.132 10.0214 29.9886 10.0781 29.8151 10.0781C29.6415 10.0781 29.4947 10.0214 29.3746 9.90796ZM36.1345 4.30233L35.2436 4.74277C35.1035 4.51588 34.91 4.3357 34.663 4.20223C34.4228 4.06876 34.1559 4.00203 33.8622 4.00203C33.4151 4.00203 33.0381 4.14217 32.7311 4.42245C32.4308 4.70273 32.2807 5.04975 32.2807 5.4635V6.18422C32.6877 5.82386 33.1982 5.64368 33.8122 5.64368C34.5196 5.64368 35.1068 5.85723 35.574 6.28432C36.0544 6.71809 36.2947 7.24862 36.2947 7.87592C36.2947 8.48987 36.0544 9.01373 35.574 9.4475C35.1001 9.86792 34.5129 10.0781 33.8122 10.0781C33.1048 10.0781 32.5109 9.86792 32.0304 9.4475C31.5566 9.01373 31.3197 8.48319 31.3197 7.8559V5.48352C31.3197 4.78949 31.5633 4.21891 32.0504 3.7718C32.5442 3.31134 33.1549 3.08111 33.8823 3.08111C34.3761 3.08111 34.8199 3.19122 35.2136 3.41144C35.6073 3.62498 35.9143 3.92195 36.1345 4.30233ZM33.8122 6.5646C33.3851 6.5646 33.0281 6.68806 32.7411 6.93497C32.4542 7.18189 32.3107 7.48553 32.3107 7.84589C32.3107 8.2196 32.4542 8.52991 32.7411 8.77682C33.0281 9.02374 33.3851 9.14719 33.8122 9.14719C34.2259 9.14719 34.5763 9.02707 34.8632 8.78683C35.1502 8.53992 35.2937 8.23628 35.2937 7.87592C35.2937 7.50221 35.1502 7.1919 34.8632 6.94498C34.5696 6.6914 34.2193 6.5646 33.8122 6.5646ZM37.1638 8.79684L38.0547 8.3564C38.1881 8.60331 38.3816 8.79684 38.6352 8.93698C38.8955 9.07712 39.1858 9.14719 39.5061 9.14719C39.9799 9.14719 40.3736 9.01039 40.6873 8.73678C41.0009 8.4565 41.1578 8.10949 41.1578 7.69574V7.02506C40.7507 7.42547 40.2469 7.62567 39.6462 7.62567C38.9455 7.62567 38.3583 7.40878 37.8845 6.97501C37.4173 6.54792 37.1838 6.00738 37.1838 5.35339C37.1838 4.6994 37.4173 4.15885 37.8845 3.73176C38.3583 3.29799 38.9455 3.08111 39.6462 3.08111C40.3403 3.08111 40.9242 3.29799 41.398 3.73176C41.8718 4.16553 42.1087 4.69606 42.1087 5.32336V7.68573C42.1087 8.36641 41.8585 8.93698 41.358 9.39745C40.8641 9.85123 40.2469 10.0781 39.5061 10.0781C38.9856 10.0781 38.5184 9.96468 38.1047 9.73779C37.691 9.51089 37.3773 9.19724 37.1638 8.79684ZM41.1077 5.3634C41.1077 4.97634 40.9676 4.65268 40.6873 4.39242C40.407 4.13216 40.06 4.00203 39.6462 4.00203C39.2325 4.00203 38.8821 4.13216 38.5952 4.39242C38.3149 4.64601 38.1748 4.96299 38.1748 5.34338C38.1748 5.73043 38.3149 6.05409 38.5952 6.31435C38.8821 6.57461 39.2325 6.70474 39.6462 6.70474C40.06 6.70474 40.407 6.57461 40.6873 6.31435C40.9676 6.05409 41.1077 5.7371 41.1077 5.3634ZM44.3592 9.95801L43.8186 9.50756L49.1039 3.20123L49.6445 3.65168L44.3592 9.95801ZM42.9478 4.78281C42.9478 4.29566 43.1113 3.89192 43.4383 3.5716C43.7653 3.2446 44.169 3.08111 44.6495 3.08111C45.1366 3.08111 45.5404 3.2446 45.8607 3.5716C46.1877 3.89192 46.3512 4.29566 46.3512 4.78281C46.3512 5.26997 46.1877 5.67371 45.8607 5.99403C45.5404 6.31435 45.1366 6.47451 44.6495 6.47451C44.1757 6.47451 43.7719 6.31435 43.4383 5.99403C43.1113 5.66703 42.9478 5.2633 42.9478 4.78281ZM43.8086 4.78281C43.8086 5.01638 43.8887 5.21325 44.0489 5.37341C44.2157 5.53357 44.4159 5.61365 44.6495 5.61365C44.883 5.61365 45.0799 5.53357 45.2401 5.37341C45.4069 5.21325 45.4903 5.01638 45.4903 4.78281C45.4903 4.54925 45.4069 4.35238 45.2401 4.19222C45.0799 4.02539 44.883 3.94197 44.6495 3.94197C44.4159 3.94197 44.2157 4.02205 44.0489 4.18221C43.8887 4.34237 43.8086 4.54257 43.8086 4.78281ZM47.0919 8.37642C47.0919 7.89594 47.2554 7.49554 47.5824 7.17521C47.9094 6.84822 48.3132 6.68472 48.7936 6.68472C49.2808 6.68472 49.6845 6.84822 50.0048 7.17521C50.3318 7.49554 50.4953 7.89594 50.4953 8.37642C50.4953 8.86358 50.3318 9.27065 50.0048 9.59765C49.6845 9.91797 49.2808 10.0781 48.7936 10.0781C48.3198 10.0781 47.9161 9.91797 47.5824 9.59765C47.2554 9.27065 47.0919 8.86358 47.0919 8.37642ZM48.193 7.78583C48.0329 7.94599 47.9528 8.14285 47.9528 8.37642C47.9528 8.60999 48.0329 8.81019 48.193 8.97702C48.3599 9.13718 48.5601 9.21726 48.7936 9.21726C49.0272 9.21726 49.2241 9.13718 49.3842 8.97702C49.5444 8.81019 49.6245 8.60999 49.6245 8.37642C49.6245 8.14285 49.5444 7.94599 49.3842 7.78583C49.2241 7.62567 49.0272 7.54559 48.7936 7.54559C48.5601 7.54559 48.3599 7.62567 48.193 7.78583Z" fill="#309AFF"/>
<path d="M3.49882 6.96961L2.66055 7.79693C2.35191 8.10154 1.8515 8.10154 1.54286 7.79693C1.23422 7.49232 1.23422 6.99845 1.54286 6.69384L2.38113 5.86652L0.173828 3.68805H5.70612V9.14808L3.49882 6.96961Z" fill="#309AFF"/>
</svg>
