<svg width="49" height="12" viewBox="0 0 49 12" fill="none" xmlns="http://www.w3.org/2000/svg">
<path d="M15.387 6.15495H13.4951V5.29408H15.387V3.40218H16.2479V5.29408H18.1398V6.15495H16.2479V8.04684H15.387V6.15495ZM20.9988 3.59237L19.6975 4.26305L19.287 3.41219L21.2891 2.37115H21.9597V9.12793H20.9988V3.59237ZM27.1325 4.32311C27.1325 4.01613 27.0024 3.74586 26.7421 3.51229C26.4952 3.2854 26.1849 3.17195 25.8112 3.17195C25.4908 3.17195 25.2006 3.26872 24.9403 3.46224C24.68 3.65577 24.4832 3.92271 24.3497 4.26305L23.4488 3.83261C23.669 3.34546 23.986 2.96174 24.3998 2.68146C24.8202 2.3945 25.2906 2.25103 25.8112 2.25103C26.4518 2.25103 26.999 2.45123 27.4528 2.85163C27.9066 3.25203 28.1335 3.73251 28.1335 4.29308C28.1335 4.64677 28.0201 5.00379 27.7932 5.36415C27.5663 5.71784 27.2026 6.13493 26.7021 6.61541L25.0504 8.197H28.2136V9.12793H23.5489V8.40721L26.0814 5.97476C26.4485 5.6144 26.7154 5.30743 26.8822 5.05384C27.0491 4.80025 27.1325 4.55667 27.1325 4.32311ZM30.3414 8.8977C30.3414 9.07121 30.3081 9.24138 30.2413 9.40821C30.1746 9.57505 30.0978 9.71185 30.0111 9.81862C29.931 9.93207 29.8409 10.0322 29.7408 10.1189C29.6407 10.2124 29.564 10.2757 29.5106 10.3091C29.4572 10.3492 29.4205 10.3725 29.4005 10.3792L29.1102 10.0789C29.1169 10.0722 29.1335 10.0489 29.1602 10.0088C29.1936 9.97545 29.2203 9.94542 29.2403 9.91872C29.2804 9.86534 29.3504 9.75856 29.4505 9.5984C29.5373 9.45159 29.5807 9.33147 29.5807 9.23804C29.4338 9.21802 29.3104 9.15129 29.2103 9.03784C29.1102 8.91772 29.0601 8.77758 29.0601 8.61742C29.0601 8.45726 29.1169 8.32045 29.2303 8.20701C29.3504 8.09356 29.4972 8.03683 29.6707 8.03683C29.8643 8.03683 30.0244 8.11691 30.1512 8.27708C30.278 8.43724 30.3414 8.64411 30.3414 8.8977ZM33.5363 9.24805C32.9758 9.24805 32.4786 9.10791 32.0448 8.82763C31.6111 8.54067 31.3008 8.15696 31.1139 7.67647L32.0649 7.4062C32.1983 7.68648 32.3952 7.91004 32.6555 8.07687C32.9157 8.23704 33.2127 8.31712 33.5464 8.31712C33.9801 8.31712 34.3438 8.19032 34.6375 7.93673C34.9311 7.68315 35.0779 7.37283 35.0779 7.0058C35.0779 6.61874 34.9211 6.29509 34.6074 6.03483C34.3004 5.77456 33.9101 5.64443 33.4362 5.64443H31.6044L31.9447 2.37115H35.5183V3.26204H32.7456L32.5954 4.76355H33.4763C34.217 4.76355 34.831 4.9771 35.3181 5.40419C35.8186 5.83129 36.0689 6.36516 36.0689 7.0058C36.0689 7.64644 35.8253 8.18031 35.3382 8.60741C34.8643 9.0345 34.2637 9.24805 33.5363 9.24805ZM38.2714 9.12793L37.7309 8.67748L43.0162 2.37115L43.5567 2.8216L38.2714 9.12793ZM36.86 3.95274C36.86 3.46558 37.0235 3.06184 37.3505 2.74152C37.6775 2.41452 38.0812 2.25103 38.5617 2.25103C39.0489 2.25103 39.4526 2.41452 39.7729 2.74152C40.0999 3.06184 40.2634 3.46558 40.2634 3.95274C40.2634 4.43989 40.0999 4.84363 39.7729 5.16395C39.4526 5.48427 39.0489 5.64443 38.5617 5.64443C38.0879 5.64443 37.6842 5.48427 37.3505 5.16395C37.0235 4.83696 36.86 4.43322 36.86 3.95274ZM37.7209 3.95274C37.7209 4.1863 37.8009 4.38317 37.9611 4.54333C38.1279 4.70349 38.3281 4.78357 38.5617 4.78357C38.7953 4.78357 38.9921 4.70349 39.1523 4.54333C39.3191 4.38317 39.4025 4.1863 39.4025 3.95274C39.4025 3.71917 39.3191 3.5223 39.1523 3.36214C38.9921 3.19531 38.7953 3.11189 38.5617 3.11189C38.3281 3.11189 38.1279 3.19197 37.9611 3.35213C37.8009 3.51229 37.7209 3.71249 37.7209 3.95274ZM41.0042 7.54634C41.0042 7.06586 41.1676 6.66546 41.4946 6.34514C41.8216 6.01814 42.2254 5.85464 42.7059 5.85464C43.193 5.85464 43.5968 6.01814 43.9171 6.34514C44.2441 6.66546 44.4076 7.06586 44.4076 7.54634C44.4076 8.0335 44.2441 8.44057 43.9171 8.76757C43.5968 9.08789 43.193 9.24805 42.7059 9.24805C42.2321 9.24805 41.8283 9.08789 41.4946 8.76757C41.1676 8.44057 41.0042 8.0335 41.0042 7.54634ZM42.1053 6.95575C41.9451 7.11591 41.865 7.31277 41.865 7.54634C41.865 7.77991 41.9451 7.98011 42.1053 8.14695C42.2721 8.30711 42.4723 8.38719 42.7059 8.38719C42.9394 8.38719 43.1363 8.30711 43.2965 8.14695C43.4566 7.98011 43.5367 7.77991 43.5367 7.54634C43.5367 7.31277 43.4566 7.11591 43.2965 6.95575C43.1363 6.79559 42.9394 6.71551 42.7059 6.71551C42.4723 6.71551 42.2721 6.79559 42.1053 6.95575Z" fill="white"/>
<path d="M4.15312 6.13953L3.31485 6.96685C3.00621 7.27146 2.5058 7.27146 2.19716 6.96685C1.88851 6.66224 1.88851 6.16837 2.19716 5.86376L3.03543 5.03644L0.828125 2.85797H6.36042V8.318L4.15312 6.13953Z" fill="white"/>
</svg>
