<svg width="47" height="42" viewBox="0 0 47 42" fill="none" xmlns="http://www.w3.org/2000/svg">
<path opacity="0.94" d="M34.6711 3.42375L44.2517 20.0689L34.6711 3.42375ZM34.6711 3.42375C34.671 3.42358 34.6709 3.42341 34.6708 3.42324M34.6711 3.42375L34.6708 3.42324M34.6708 3.42324C34.3395 2.84823 33.7328 2.5 33.0809 2.5H13.9187C13.2674 2.5 12.6607 2.84779 12.3284 3.42363C12.3283 3.4239 12.3281 3.42418 12.328 3.42445L2.74826 20.0691L34.6708 3.42324ZM2.74834 21.9295L12.328 38.5755C12.3281 38.5757 12.3283 38.576 12.3285 38.5763C12.6608 39.1522 13.2676 39.5 13.9187 39.5H33.0808C33.7329 39.5 34.3397 39.1515 34.671 38.5763L44.2517 21.9296C44.2518 21.9294 44.252 21.9291 44.2521 21.9288C44.2522 21.9287 44.2523 21.9286 44.2523 21.9285C44.5826 21.353 44.5825 20.6451 44.2524 20.07L2.74834 21.9295ZM2.74834 21.9295C2.41736 21.3538 2.41728 20.6454 2.74775 20.07L2.74834 21.9295Z" stroke="url(#paint0_linear_86_29026)" stroke-width="5"/>
<defs>
<linearGradient id="paint0_linear_86_29026" x1="23.5" y1="0" x2="23.5" y2="42" gradientUnits="userSpaceOnUse">
<stop stop-color="#6D54DB"/>
<stop offset="1" stop-color="#59A2DD"/>
</linearGradient>
</defs>
</svg>
