<svg width="41" height="40" viewBox="0 0 41 40" fill="none" xmlns="http://www.w3.org/2000/svg">
<g opacity="0.3">
<path d="M39.1817 0.00349121C31.373 -0.136514 22.4677 3.94531 16.8308 10.2772C11.4439 10.3789 6.19875 12.5873 2.33694 16.4491C2.11193 16.6708 2.03192 17.0025 2.13026 17.3025C2.23027 17.6042 2.49028 17.8225 2.80362 17.8675L9.2272 18.7875L8.43383 19.6759C8.13882 20.0059 8.15382 20.5076 8.46717 20.8209L19.1792 31.533C19.3409 31.6947 19.5543 31.7764 19.7693 31.7764C19.9676 31.7764 20.1659 31.7064 20.3243 31.5647L21.2127 30.7713L22.1327 37.1949C22.1777 37.5082 22.4244 37.7383 22.7227 37.8383C22.7994 37.8633 22.8794 37.8749 22.9611 37.8749C23.1977 37.8749 23.4394 37.7716 23.6061 37.6066C27.4146 33.7981 29.623 28.5529 29.7246 23.166C36.0632 17.5175 40.1784 8.61548 39.9967 0.816855C39.985 0.373505 39.6267 0.0151583 39.1817 0.00349121ZM31.5014 14.3907C30.6897 15.2024 29.623 15.6091 28.5546 15.6091C27.4862 15.6091 26.4195 15.2024 25.6078 14.3907C23.9844 12.7656 23.9844 10.1222 25.6078 8.49715C27.2329 6.87209 29.8763 6.87209 31.5014 8.49715C33.1264 10.1222 33.1264 12.7673 31.5014 14.3907Z" fill="white"/>
<path d="M4.54027 28.1747C2.75687 29.9582 0.308441 38.0151 0.035097 38.9268C-0.0532397 39.2202 0.0284301 39.5385 0.243438 39.7552C0.403444 39.9152 0.615119 40.0002 0.833461 40.0002C0.913464 40.0002 0.993467 39.9885 1.07347 39.9652C1.98517 39.6919 10.0421 37.2434 11.8255 35.46C13.834 33.4516 13.834 30.1832 11.8255 28.1747C9.81547 26.1663 6.54868 26.168 4.54027 28.1747Z" fill="white"/>
</g>
</svg>
